<?xml version="1.0" standalone="no"?>
<!DOCTYPE svg PUBLIC "-//W3C//DTD SVG 20010904//EN"
 "http://www.w3.org/TR/2001/REC-SVG-20010904/DTD/svg10.dtd">
<svg version="1.0" xmlns="http://www.w3.org/2000/svg"
 width="333.000000pt" height="329.000000pt" viewBox="0 0 333.000000 329.000000"
 preserveAspectRatio="xMidYMid meet">

<g transform="translate(0.000000,329.000000) scale(0.100000,-0.100000)"
fill="#000000" stroke="none">
<path d="M1710 2097 c0 -82 4 -119 14 -133 8 -10 18 -15 23 -11 4 5 9 64 11
133 l4 124 -26 0 -26 0 0 -113z"/>
<path d="M1610 2183 c0 -10 10 -66 21 -125 19 -94 24 -108 42 -108 17 0 19 5
14 38 -33 223 -30 212 -54 212 -15 0 -23 -6 -23 -17z"/>
<path d="M1796 2096 c-21 -135 -21 -148 1 -144 13 2 23 27 40 103 29 132 29
145 -1 145 -22 0 -24 -6 -40 -104z"/>
<path d="M1523 2173 c-19 -7 -17 -18 30 -135 30 -77 46 -107 57 -106 20 4 20
7 -19 136 -33 107 -40 117 -68 105z"/>
<path d="M1876 2064 c-26 -78 -35 -119 -28 -126 17 -17 27 -2 72 112 36 93 41
113 29 121 -8 5 -19 9 -24 9 -6 0 -28 -52 -49 -116z"/>
<path d="M1427 2127 c-16 -11 -12 -22 48 -119 46 -75 70 -105 80 -101 8 3 15
9 15 14 0 15 -111 219 -119 219 -4 0 -15 -6 -24 -13z"/>
<path d="M1955 2035 c-52 -96 -64 -143 -35 -133 6 2 39 50 74 108 58 94 63
105 48 117 -10 7 -20 13 -24 13 -4 0 -32 -47 -63 -105z"/>
<path d="M1340 2065 c-10 -13 -3 -26 46 -81 33 -37 70 -80 84 -97 23 -26 27
-28 39 -13 12 14 3 28 -63 111 -42 52 -80 95 -85 95 -5 0 -14 -7 -21 -15z"/>
<path d="M2055 2028 c-22 -29 -55 -71 -74 -95 -30 -38 -32 -46 -20 -58 12 -11
26 1 97 81 70 78 82 97 72 109 -20 24 -32 17 -75 -37z"/>
<path d="M1272 1998 c-7 -7 -12 -15 -12 -20 0 -4 43 -42 96 -84 83 -67 97 -75
110 -63 12 13 3 25 -77 94 -50 44 -94 81 -98 83 -4 1 -12 -3 -19 -10z"/>
<path d="M2082 1928 c-79 -70 -90 -84 -78 -96 12 -12 27 -3 110 62 85 68 95
79 86 97 -6 10 -14 19 -18 19 -4 0 -49 -37 -100 -82z"/>
<path d="M1210 1909 c-7 -11 -10 -22 -8 -25 2 -2 51 -29 107 -59 94 -52 131
-62 131 -36 0 8 -203 141 -215 141 -3 0 -9 -9 -15 -21z"/>
<path d="M2136 1866 c-101 -63 -120 -81 -93 -92 11 -4 204 91 225 111 5 4 -22
45 -28 44 -3 0 -50 -29 -104 -63z"/>
<path d="M2549 1880 c-94 -17 -145 -83 -137 -178 4 -49 9 -60 42 -88 20 -18
66 -41 106 -53 38 -12 79 -30 92 -41 19 -15 21 -22 13 -46 -16 -46 -66 -53
-160 -23 l-76 25 -5 -21 c-3 -12 -4 -37 -2 -56 4 -40 29 -55 115 -70 145 -23
253 48 253 167 0 83 -53 135 -172 169 -89 25 -115 67 -63 101 30 19 92 13 162
-17 24 -10 47 -19 49 -19 8 0 -1 103 -9 116 -14 23 -150 45 -208 34z"/>
<path d="M540 1605 l0 -275 61 0 60 0 -1 153 c-2 223 -5 207 32 156 17 -24 76
-104 130 -176 l99 -133 54 0 55 0 0 275 0 276 -57 -3 -58 -3 0 -173 0 -173
-22 28 c-13 15 -71 94 -130 175 l-108 147 -57 1 -58 0 0 -275z"/>
<path d="M1166 1813 c-4 -9 -3 -20 1 -23 14 -13 226 -80 234 -74 24 15 -1 33
-99 72 -121 47 -127 49 -136 25z"/>
<path d="M2163 1788 c-93 -37 -119 -57 -94 -72 6 -4 140 36 228 68 17 7 3 46
-16 45 -9 0 -62 -19 -118 -41z"/>
<path d="M1145 1732 c-3 -3 -5 -15 -5 -27 0 -20 8 -23 88 -34 48 -7 104 -15
125 -18 33 -5 37 -3 37 16 0 11 -6 21 -12 21 -7 0 -61 11 -120 24 -59 13 -110
21 -113 18z"/>
<path d="M2198 1712 c-102 -22 -118 -28 -118 -45 0 -17 5 -19 38 -14 20 3 76
11 125 18 81 11 87 14 87 35 0 13 -3 25 -7 27 -5 2 -61 -7 -125 -21z"/>
<path d="M1130 1606 l0 -26 108 1 c119 1 147 7 147 29 0 12 -22 16 -127 18
l-128 3 0 -25z"/>
<path d="M2083 1614 c-3 -8 -2 -18 1 -22 4 -3 63 -8 131 -10 l125 -4 0 26 0
27 -126 -2 c-99 -1 -127 -4 -131 -15z"/>
<path d="M1245 1545 c-44 -8 -86 -14 -92 -14 -17 -1 -17 -51 -1 -51 7 0 63 10
125 23 92 18 113 25 113 40 0 20 -27 21 -145 2z"/>
<path d="M2077 1546 c-4 -9 1 -17 11 -20 27 -9 213 -46 228 -46 14 0 21 50 7
50 -5 0 -51 7 -103 15 -119 18 -137 18 -143 1z"/>
<path d="M1268 1462 c-60 -20 -108 -41 -108 -47 0 -5 4 -17 9 -25 8 -12 28 -7
123 31 71 28 113 50 113 59 0 24 -24 21 -137 -18z"/>
<path d="M2060 1485 c0 -8 12 -21 28 -28 46 -23 202 -80 206 -76 2 2 6 13 10
24 5 19 -5 24 -107 58 -126 41 -137 43 -137 22z"/>
<path d="M1313 1390 c-56 -30 -105 -59 -109 -62 -3 -4 0 -16 8 -26 14 -21 6
-25 218 107 13 9 13 11 0 24 -13 12 -29 6 -117 -43z"/>
<path d="M2039 1441 c-1 -6 -2 -15 -3 -21 -1 -5 46 -39 104 -75 104 -65 104
-65 116 -42 7 12 10 25 6 28 -23 21 -222 119 -223 110z"/>
<path d="M1353 1317 c-51 -39 -92 -75 -93 -78 0 -3 6 -14 14 -24 13 -18 19
-13 108 66 85 75 108 109 74 109 -6 0 -52 -33 -103 -73z"/>
<path d="M1994 1379 c-7 -12 -6 -13 109 -114 74 -65 78 -67 92 -49 8 10 14 21
14 24 0 9 -187 150 -198 150 -5 0 -13 -5 -17 -11z"/>
<path d="M1411 1257 c-45 -50 -81 -95 -81 -99 0 -4 9 -12 19 -18 18 -9 29 1
95 85 42 52 76 99 76 104 0 5 -6 11 -14 14 -10 4 -43 -27 -95 -86z"/>
<path d="M1954 1335 c-4 -9 22 -51 67 -107 40 -51 74 -94 75 -96 4 -6 44 23
42 29 -6 15 -163 189 -170 189 -5 0 -11 -7 -14 -15z"/>
<path d="M1527 1288 c-8 -13 -38 -60 -66 -106 -29 -46 -51 -85 -49 -86 1 -2
12 -8 24 -14 18 -10 25 -2 78 95 53 96 63 133 37 133 -6 0 -17 -10 -24 -22z"/>
<path d="M1902 1303 c-9 -3 4 -36 44 -111 31 -59 59 -110 63 -114 3 -4 16 -1
29 6 22 12 22 12 -44 119 -36 59 -69 107 -72 106 -4 0 -13 -3 -20 -6z"/>
<path d="M1552 1172 c-23 -60 -42 -113 -42 -119 0 -15 40 -24 46 -10 17 46 74
222 74 229 0 4 -8 8 -18 8 -15 0 -28 -25 -60 -108z"/>
<path d="M1840 1268 c0 -11 69 -228 74 -235 5 -6 46 11 46 19 0 6 -19 59 -42
119 -32 81 -48 109 -60 109 -10 0 -18 -6 -18 -12z"/>
<path d="M1655 1257 c-11 -31 -51 -238 -47 -242 3 -3 15 -5 26 -5 19 0 23 10
39 113 9 61 17 117 17 123 0 17 -30 26 -35 11z"/>
<path d="M1717 1253 c-4 -3 -7 -62 -7 -130 l0 -123 25 0 25 0 0 108 c0 59 -3
117 -6 130 -6 21 -24 29 -37 15z"/>
<path d="M1780 1243 c0 -10 7 -66 16 -125 16 -102 18 -108 40 -108 30 0 30 6
2 143 -19 87 -26 107 -40 107 -10 0 -18 -7 -18 -17z"/>
</g>
</svg>
